<?xml version="1.0" encoding="iso-8859-1"?>
<!-- Generator: Adobe Illustrator 18.1.1, SVG Export Plug-In . SVG Version: 6.00 Build 0)  -->
<svg version="1.1" id="Capa_1" xmlns="http://www.w3.org/2000/svg" xmlns:xlink="http://www.w3.org/1999/xlink" x="0px" y="0px"
	 viewBox="0 0 60.131 60.131" style="enable-background:new 0 0 60.131 60.131;" xml:space="preserve">
<g>
	<g>
		<path style="fill:#010002;" d="M32.596,8.935c0.791,0,1.437,0.742,1.437,1.654h3.731V0.845l-2.113,2.29H29.34l-1.908-2.29v9.745
			h3.731C31.164,9.677,31.805,8.935,32.596,8.935z M36.456,5.207c0.45,0.896,0.072,2-0.846,2.461
			c-0.918,0.463-2.061,0.096-2.48-0.788C33.701,5.835,36.456,5.207,36.456,5.207z M29.72,7.669
			c-0.917-0.461-1.295-1.565-0.843-2.461c0,0,2.75,0.628,3.324,1.673C31.781,7.764,30.637,8.132,29.72,7.669z"/>
		<path style="fill:#010002;" d="M17.342,4.821L7.982,0L7.153,1.61l9.359,4.821L17.342,4.821z M16.121,5.217L8.368,1.222
			l0.003-0.007l7.754,3.994L16.121,5.217z"/>
		<path style="fill:#010002;" d="M52.397,35.385c0.514,0.08,0.812-0.541,0.357-0.846c-1.09-0.729-2.197-0.822-3.434-1.015
			c0.096-0.396,0.312-0.771,0.252-1.183c-0.037-0.229-0.354-0.402-0.568-0.32c-0.72,0.271-1.361,0.641-1.955,1.064
			c-0.056-0.318-0.164-0.649-0.367-0.987c-3.283-5.44-6.166-11.1-9.172-16.694c-0.023-0.042-0.055-0.072-0.078-0.112
			c-0.894-2.563-5.902-0.925-10.83-2.458c-4.782-2.444-9.563-4.89-14.347-7.336c-3.102-1.585-5.843,3.086-2.732,4.676
			c5.487,2.805,10.976,5.611,16.465,8.417c-1.287,5.782,1.465,5.455,0.262,13.075c-0.092,0.293-0.161,0.602-0.17,0.955
			c0,0-0.469,16.17-0.702,24.252c-0.121,4.196,6.396,4.418,6.514,0.209c0.125-4.367,0.252-8.738,0.381-13.104
			c0.595,4.43,1.189,8.86,1.785,13.293c0.562,4.161,7.027,3.327,6.466-0.849c-1.078-8.018-2.155-16.028-3.234-24.047
			c-0.021-0.168-0.06-0.326-0.099-0.479c0.052-0.21,0.054-0.442-0.021-0.715c-0.412-1.497-0.146-2.868,0.198-4.541
			c1.489,2.761,3.015,5.503,4.634,8.19c0.203,0.334,0.445,0.586,0.707,0.784c-2.344,1.15-3.97,3.632-3.97,6.515
			c0,3.978,3.085,7.197,6.89,7.197s6.889-3.223,6.889-7.197c0-2.681-1.401-5.019-3.481-6.254
			C49.95,35.359,50.977,35.163,52.397,35.385z M46.747,44.756v0.61c0,0.198-0.161,0.357-0.359,0.357h-0.541
			c-0.199,0-0.357-0.159-0.357-0.357v-0.534c-0.445-0.062-0.872-0.209-1.167-0.42c-0.134-0.097-0.187-0.265-0.128-0.412l0.203-0.578
			c0.037-0.104,0.121-0.187,0.227-0.221c0.105-0.035,0.225-0.019,0.312,0.041c0.291,0.194,0.682,0.312,1.041,0.312
			c0.404,0,0.666-0.189,0.666-0.484c0-0.188-0.06-0.412-0.75-0.691c-0.812-0.315-1.645-0.783-1.645-1.819
			c0-0.806,0.5-1.433,1.299-1.673v-0.586c0-0.195,0.161-0.354,0.358-0.354h0.532c0.199,0,0.359,0.159,0.359,0.354v0.508
			c0.348,0.05,0.656,0.154,0.939,0.322c0.148,0.086,0.215,0.271,0.152,0.437l-0.215,0.567c-0.035,0.1-0.115,0.176-0.214,0.209
			c-0.101,0.035-0.209,0.023-0.301-0.022c-0.14-0.08-0.429-0.246-0.905-0.246c-0.348,0-0.556,0.142-0.556,0.382
			c0,0.183,0.062,0.323,0.849,0.649c0.723,0.295,1.553,0.776,1.553,1.903C48.104,43.838,47.571,44.508,46.747,44.756z"/>
	</g>
</g>
<g>
</g>
<g>
</g>
<g>
</g>
<g>
</g>
<g>
</g>
<g>
</g>
<g>
</g>
<g>
</g>
<g>
</g>
<g>
</g>
<g>
</g>
<g>
</g>
<g>
</g>
<g>
</g>
<g>
</g>
</svg>
