<?xml version="1.0" encoding="iso-8859-1"?>
<!-- Generator: Adobe Illustrator 19.0.0, SVG Export Plug-In . SVG Version: 6.00 Build 0)  -->
<svg version="1.1" id="Layer_1" xmlns="http://www.w3.org/2000/svg" xmlns:xlink="http://www.w3.org/1999/xlink" x="0px" y="0px"
	 viewBox="0 0 389.559 389.559" style="enable-background:new 0 0 389.559 389.559;" xml:space="preserve">
<g>
	<polygon style="fill:#3496F7;" points="380.024,45.944 380.024,383.066 372.974,383.066 324.783,361.715 271.855,383.066 
		56.949,383.066 56.949,45.944 	"/>
	<rect x="87.254" y="192.996" style="fill:#E6E6E6;" width="171.157" height="156.333"/>
	<rect x="95.085" y="200.827" style="fill:#2D4151;" width="155.495" height="140.381"/>
	<rect x="271.855" y="192.996" style="fill:#E6E6E6;" width="101.119" height="190.074"/>
	<rect x="279.687" y="200.827" style="fill:#2D4151;" width="85.456" height="140.381"/>
	<rect x="279.687" y="349.329" style="fill:#3496F7;" width="85.456" height="25.909"/>
	<rect x="287.518" y="357.16" style="fill:#E6E6E6;" width="69.794" height="10.247"/>
	<rect x="7.612" y="30.354" style="fill:#2E8CCC;" width="227.542" height="159.883"/>
	<rect x="47.411" y="33.182" style="fill:#2278B2;" width="342.148" height="12.762"/>
	<polygon style="fill:#E6E6E6;" points="235.154,19.763 7.612,19.763 7.612,383.066 75.105,383.066 75.105,179.646 235.154,179.646 
		235.154,146.581 208.783,89.049 235.154,49.126 	"/>
	<rect x="28.495" y="49.127" style="fill:#2D4151;" width="206.659" height="97.454"/>
	<rect x="98.105" y="42.165" style="fill:#E6E6E6;" width="9.571" height="120.948"/>
	<rect x="180.767" y="42.165" style="fill:#E6E6E6;" width="9.571" height="120.948"/>
	<polygon style="fill:#FFFFFF;" points="310.911,66.974 321.097,87.614 343.875,90.924 327.393,106.99 331.284,129.675 
		310.911,118.964 290.539,129.675 294.429,106.99 277.948,90.924 300.725,87.614 	"/>
	<rect y="6.49" style="fill:#666666;" width="242.766" height="13.273"/>
	<path style="opacity:0.2;fill:#FCFAFA;enable-background:new    ;" d="M91.768,52.995v88.573H41.099
		C41.099,141.568,85.561,127.344,91.768,52.995z"/>
	<path style="opacity:0.2;fill:#FCFAFA;enable-background:new    ;" d="M175.65,52.995v88.573h-50.669
		C124.981,141.568,169.443,127.344,175.65,52.995z"/>
	<path style="opacity:0.2;fill:#FCFAFA;enable-background:new    ;" d="M245.587,231.628v104.996h-60.064
		C185.523,336.624,238.229,319.763,245.587,231.628z"/>
	<path style="opacity:0.2;fill:#FCFAFA;enable-background:new    ;" d="M360.999,231.628v104.996h-60.064
		C300.935,336.624,353.641,319.763,360.999,231.628z"/>
	<path style="opacity:0.2;fill:#FCFAFA;enable-background:new    ;" d="M163.061,231.628v104.996h-60.064
		C102.997,336.624,155.703,319.763,163.061,231.628z"/>
	<g>
		<path style="fill:#FFFFFF;" d="M262.012,159.839c1.227,0,2.349,0.091,3.365,0.272c1.016,0.182,1.884,0.507,2.603,0.977
			s1.276,1.105,1.669,1.909s0.589,1.829,0.589,3.073c0,1.263-0.197,2.316-0.59,3.158c-0.394,0.843-0.95,1.518-1.669,2.024
			c-0.72,0.507-1.588,0.867-2.604,1.077c-1.017,0.21-2.14,0.315-3.367,0.315h-4.432v5.565c0,0.884,1.063,1.326,3.188,1.326v1.637
			h-10.136v-1.637c1.704,0,2.556-0.441,2.556-1.323v-15.357c0-0.882-0.852-1.323-2.556-1.323v-1.694L262.012,159.839
			L262.012,159.839z M257.575,162.251v8.04h3.934c1.55,0,2.66-0.355,3.331-1.066c0.67-0.71,1.005-1.758,1.005-3.141
			c0-1.21-0.335-2.152-1.005-2.824c-0.67-0.672-1.78-1.009-3.331-1.009L257.575,162.251L257.575,162.251z"/>
		<path style="fill:#FFFFFF;" d="M283.13,159.408c1.531,0,2.953,0.192,4.264,0.574s2.441,1.008,3.388,1.878
			c0.948,0.87,1.689,2.012,2.226,3.427c0.536,1.415,0.804,3.155,0.804,5.219c0,1.702-0.229,3.236-0.689,4.603
			c-0.459,1.367-1.148,2.533-2.067,3.499s-2.077,1.711-3.475,2.237s-3.025,0.789-4.881,0.789c-1.512,0-2.919-0.182-4.221-0.545
			c-1.302-0.363-2.427-0.965-3.374-1.807c-0.948-0.841-1.694-1.94-2.24-3.298s-0.818-3.03-0.818-5.019
			c0-1.778,0.21-3.379,0.632-4.803c0.42-1.424,1.081-2.638,1.981-3.642s2.048-1.773,3.446-2.309
			C279.502,159.676,281.177,159.408,283.13,159.408z M283.274,161.763c-1.187,0-2.211,0.177-3.072,0.531s-1.565,0.866-2.11,1.536
			c-0.546,0.67-0.948,1.493-1.206,2.469c-0.258,0.977-0.388,2.087-0.388,3.331c0,1.934,0.144,3.518,0.431,4.752
			c0.287,1.235,0.699,2.211,1.235,2.929c0.536,0.718,1.187,1.216,1.953,1.493c0.765,0.278,1.626,0.417,2.584,0.417
			c1.264,0,2.326-0.187,3.188-0.56c0.861-0.373,1.55-0.918,2.067-1.637c0.517-0.718,0.89-1.608,1.12-2.67
			c0.23-1.062,0.345-2.283,0.345-3.661c0-1.781-0.148-3.245-0.445-4.394s-0.713-2.058-1.249-2.728
			c-0.536-0.669-1.182-1.139-1.938-1.407C285.03,161.897,284.193,161.763,283.274,161.763z"/>
		<path style="fill:#FFFFFF;" d="M305.814,161.533c-2.125,0-3.188,0.44-3.188,1.321v16.08h5.628c0.728,0,1.378-0.101,1.953-0.301
			c0.574-0.201,1.072-0.536,1.493-1.005c0.421-0.469,0.761-1.095,1.02-1.88c0.258-0.785,0.435-1.771,0.531-2.958l1.895,0.201
			l-0.689,8.184h-18.779v-1.637c1.704,0,2.556-0.441,2.556-1.323v-15.357c0-0.882-0.852-1.323-2.556-1.323v-1.694h10.136V161.533z"
			/>
		<path style="fill:#FFFFFF;" d="M326.833,161.533c-1.704,0-2.556,0.441-2.556,1.323v15.357c0,0.882,0.852,1.323,2.556,1.323v1.637
			H317.3v-1.637c1.723,0,2.584-0.441,2.584-1.323v-15.357c0-0.882-0.862-1.323-2.584-1.323v-1.694h9.533L326.833,161.533
			L326.833,161.533z"/>
		<path style="fill:#FFFFFF;" d="M349.201,166.874l-2.096,0.172c-0.383-1.608-1.115-2.9-2.197-3.876
			c-1.082-0.976-2.483-1.464-4.207-1.464c-1.263,0-2.345,0.22-3.245,0.661c-0.9,0.44-1.632,1.053-2.197,1.837
			c-0.565,0.785-0.981,1.723-1.249,2.814c-0.268,1.091-0.402,2.288-0.402,3.589c0,1.436,0.167,2.685,0.502,3.747
			c0.335,1.063,0.804,1.943,1.407,2.642s1.321,1.22,2.153,1.565c0.833,0.344,1.756,0.517,2.771,0.517
			c1.991,0,3.561-0.464,4.709-1.393c1.149-0.928,1.981-2.235,2.498-3.919l1.924,0.66c-0.269,0.919-0.637,1.809-1.106,2.67
			c-0.469,0.862-1.077,1.627-1.823,2.297c-0.747,0.67-1.656,1.211-2.728,1.623c-1.072,0.411-2.345,0.617-3.819,0.617
			c-1.55,0-2.996-0.221-4.336-0.661c-1.34-0.441-2.512-1.112-3.517-2.013s-1.795-2.037-2.369-3.407
			c-0.574-1.371-0.861-2.985-0.861-4.845c0-1.936,0.282-3.618,0.847-5.046c0.564-1.427,1.339-2.606,2.326-3.536
			c0.986-0.93,2.139-1.624,3.46-2.084c1.321-0.46,2.737-0.69,4.25-0.69c1.55,0,2.875,0.233,3.977,0.698
			c1.101,0.465,1.929,0.998,2.484,1.599l0.718-1.808h2.125L349.201,166.874L349.201,166.874z"/>
		<path style="fill:#FFFFFF;" d="M370.507,166.3l-2.01,0.115c-0.229-2.89-1.455-4.336-3.675-4.336h-6.432v6.949h3.273
			c1.148,0,1.809-1.158,1.981-3.475h1.809l-0.431,8.959h-1.751c-0.191-2.374-0.794-3.561-1.809-3.561h-3.072v7.982h5.398
			c3.216,0,4.996-2.048,5.341-6.145l2.067,0.201l-0.689,8.184h-19.066v-1.637c1.704,0,2.556-0.441,2.556-1.323v-15.357
			c0-0.882-0.852-1.323-2.556-1.323v-1.694h19.066V166.3z"/>
	</g>
	<rect x="167.832" y="195.553" style="fill:#E6E6E6;" width="10" height="153.776"/>
	<rect x="14.679" y="68.918" style="fill:#E6E6E6;" width="220.475" height="8"/>
	<rect x="92.56" y="237.553" style="fill:#E6E6E6;" width="160.545" height="8"/>
	<rect x="7.612" y="252.219" style="fill:#CCCCCC;" width="29.493" height="13.333"/>
	<rect x="24.278" y="268.885" style="fill:#CCCCCC;" width="29.493" height="13.333"/>
	<rect x="45.612" y="359.553" style="fill:#CCCCCC;" width="29.493" height="13.333"/>
	<rect x="62.945" y="157.553" style="fill:#CCCCCC;" width="29.493" height="13.333"/>
	<rect x="205.612" y="26.187" style="fill:#CCCCCC;" width="29.493" height="13.333"/>
</g>
<g>
</g>
<g>
</g>
<g>
</g>
<g>
</g>
<g>
</g>
<g>
</g>
<g>
</g>
<g>
</g>
<g>
</g>
<g>
</g>
<g>
</g>
<g>
</g>
<g>
</g>
<g>
</g>
<g>
</g>
</svg>
