<?xml version="1.0" encoding="iso-8859-1"?>
<!-- Generator: Adobe Illustrator 19.0.0, SVG Export Plug-In . SVG Version: 6.00 Build 0)  -->
<svg version="1.1" id="Layer_1" xmlns="http://www.w3.org/2000/svg" xmlns:xlink="http://www.w3.org/1999/xlink" x="0px" y="0px"
	 viewBox="0 0 460 460" style="enable-background:new 0 0 460 460;" xml:space="preserve" width="30" length="30">
<g id="XMLID_1068_">
	<polygon id="XMLID_1069_" style="fill:#FA6121;" points="210.003,430 230.003,460 402.772,460 402.772,30 325,30 	"/>
	<polygon id="XMLID_1070_" style="fill:#FB7B46;" points="135,30 57.228,30 57.228,460 230.003,460 230.003,430 	"/>
	<polygon id="XMLID_1071_" style="fill:#DAE0E7;" points="200,60 230,430 300.38,430 372.772,357.609 372.772,60 	"/>
	<polygon id="XMLID_1072_" style="fill:#BEC8D6;" points="372.772,430 372.772,357.609 318.19,382.19 300.38,430 	"/>
	<polygon id="XMLID_1073_" style="fill:#FFFFFF;" points="300.38,357.609 300.38,430 372.772,357.609 	"/>
	<rect id="XMLID_1074_" x="87.228" y="60" style="fill:#FFFFFF;" width="142.772" height="370"/>
	<polygon id="XMLID_1075_" style="fill:#466289;" points="290,50 290,0 230,0 210,50 	"/>
	<rect id="XMLID_1076_" x="170" style="fill:#6B81A1;" width="60" height="50"/>
	<polygon id="XMLID_1077_" style="fill:#233145;" points="230,30 210,60 230,90 325,90 325,30 	"/>
	<rect id="XMLID_1078_" x="135" y="30" style="fill:#466289;" width="95" height="60"/>
	<polygon id="XMLID_1079_" style="fill:#FCB090;" points="301.386,300.182 230.003,300.182 210.003,285.182 230.003,270.182 
		301.386,270.182 	"/>
	<path id="XMLID_1080_" style="fill:#FDCAB5;" d="M230.003,300.182c-47.636,0-86.39-38.754-86.39-86.389V199h30v14.793
		c0,31.093,25.296,56.389,56.39,56.389V300.182z"/>
	<polygon id="XMLID_1081_" style="fill:#FA6121;" points="343.812,263.969 322.599,242.756 301.386,263.969 291.386,285.182 
		301.386,306.396 322.599,327.609 343.812,306.396 322.599,285.182 	"/>
	<polygon id="XMLID_1082_" style="fill:#FB7B46;" points="280.173,242.756 258.96,263.969 280.173,285.182 258.96,306.396 
		280.173,327.609 301.386,306.396 301.386,263.969 	"/>
	<polygon id="XMLID_1083_" style="fill:#FA6121;" points="343.812,141.21 322.602,162.43 343.812,183.64 322.602,204.85 
		301.382,183.64 291.382,162.43 301.382,141.21 322.602,120 	"/>
	<polygon id="XMLID_1084_" style="fill:#FB7B46;" points="301.382,141.21 301.382,183.64 280.172,204.85 258.962,183.64 
		280.172,162.43 258.962,141.21 280.172,120 	"/>
	<path id="XMLID_1085_" style="fill:#FA6121;" d="M158.613,120c24.85,0,45,20.15,45,45s-20.15,45-45,45l-20-15l20-15
		c8.27,0,15-6.73,15-15s-6.73-15-15-15l-20-15L158.613,120z"/>
	<path id="XMLID_1086_" style="fill:#FB7B46;" d="M158.613,180v30c-24.85,0-45-20.15-45-45s20.15-45,45-45v30c-8.27,0-15,6.73-15,15
		S150.343,180,158.613,180z"/>
</g>
<g>
</g>
<g>
</g>
<g>
</g>
<g>
</g>
<g>
</g>
<g>
</g>
<g>
</g>
<g>
</g>
<g>
</g>
<g>
</g>
<g>
</g>
<g>
</g>
<g>
</g>
<g>
</g>
<g>
</g>
</svg>
